# xmcd
#
# Track frame offsets:
#	150
#	17715
#	35193
#	54543
#	71407
#	90264
#	106995
#	119829
#	133463
#	147104
#	167916
#	185481
#	202959
#	222309
#	239173
#	258030
#	274761
#	287595
#	301229
#	314870
#
# Disc length: 4473 seconds
#
# Revision: 1
# Processed by: cddbd v1.5.2PL0 Copyright (c) Steve Scherf et al.
# Submitted via: audiograbber 1.83.01
#
DISCID=3a117714
DTITLE=THMC0703 - Top Hits Monthly (THM) 
DYEAR=2007
DGENRE=Karaoke
TTITLE0=Jack Ingram - Lips Of An Angel (W Vocals)
TTITLE1=Keith Urban - Stupid Boy (W Vocals)
TTITLE2=Sara Evans - Missing Missouri (W Vocals)
TTITLE3=Blake Shelton - Don't Make Me (W Vocals)
TTITLE4=Martina McBride - Anyway (W Vocals)
TTITLE5=Dierks Bentley - Long Trip Alone (W Vocals)
TTITLE6=Vince Gill - The Reason Why (W Vocals)
TTITLE7=Josh Turner - Me And God (W Vocals)
TTITLE8=Danielle Peck - Isn't That Everything (W Vocals)
TTITLE9=Carrie Underwood - Wasted (W Vocals)
TTITLE10=Jack Ingram - Lips Of An Angel (THM) 
TTITLE11=Keith Urban - Stupid Boy (THM) 
TTITLE12=Sara Evans - Missing Missouri (THM) 
TTITLE13=Blake Shelton - Don't Make Me (THM) 
TTITLE14=Martina McBride - Anyway (THM) 
TTITLE15=Dierks Bentley - Long Trip Alone (THM) 
TTITLE16=Vince Gill - The Reason Why (THM) 
TTITLE17=Josh Turner - Me And God (THM) 
TTITLE18=Danielle Peck - Isn't That Everything (THM) 
TTITLE19=Carrie Underwood - Wasted (THM) 
EXTD=
EXTT0=
EXTT1=
EXTT2=
EXTT3=
EXTT4=
EXTT5=
EXTT6=
EXTT7=
EXTT8=
EXTT9=
EXTT10=
EXTT11=
EXTT12=
EXTT13=
EXTT14=
EXTT15=
EXTT16=
EXTT17=
EXTT18=
EXTT19=
PLAYORDER=
